<?xml version="1.0" encoding="UTF-8"?>
<svg id="Layer_2" data-name="Layer 2" xmlns="http://www.w3.org/2000/svg" viewBox="0 0 63.26 9.79">
  <defs>
    <style>
      .cls-1 {
        fill: #606060;
      }

      .cls-1, .cls-2 {
        stroke-width: 0px;
      }

      .cls-2 {
        fill: #c46a67;
      }
    </style>
  </defs>
  <g id="PRINT">
    <g>
      <g>
        <g>
          <path class="cls-1" d="m52.05,6.67c0,.34-.07.63-.2.88-.13.24-.31.43-.54.56-.23.13-.48.23-.74.29-.27.06-.56.09-.87.09h-2.11V1.75h2.09c.29,0,.56.03.81.08.24.05.47.14.68.26.21.12.37.29.49.52.12.22.18.49.18.81,0,.6-.24,1.05-.72,1.36-.11.06-.2.11-.28.12l-.12.03v.04s.04.01.07.01c.04,0,.06,0,.08,0,.22.04.46.17.72.39.31.29.46.71.46,1.28Zm-1.1-3.16c0-.64-.41-.96-1.24-.96h-1.23v2.06h.93c.17,0,.33,0,.46-.02.13-.01.27-.04.41-.09s.26-.11.35-.19c.09-.08.17-.18.22-.32s.09-.29.09-.48Zm.16,3.09c0-.47-.14-.79-.43-.96s-.68-.26-1.18-.26h-1.01v2.33h1.06c.23,0,.42-.01.58-.04.16-.03.33-.08.49-.15.16-.07.29-.19.37-.34.08-.15.13-.35.13-.58Z"/>
          <path class="cls-1" d="m57.17,5.11h.89v2.87s-.07.05-.1.07c-.58.35-1.34.53-2.28.53s-1.72-.33-2.38-.98c-.66-.64-.99-1.47-.99-2.5s.31-1.79.92-2.45c.62-.66,1.4-.99,2.35-.99s1.68.33,2.23.98c.1.13.17.25.22.37l-.79.41c-.09-.2-.28-.42-.55-.63-.28-.21-.65-.32-1.11-.32-.69,0-1.25.26-1.69.77-.44.52-.65,1.13-.65,1.85s.23,1.36.7,1.89c.46.53,1.05.79,1.76.79.66,0,1.1-.08,1.34-.25l.12-.08v-2.33Z"/>
          <path class="cls-1" d="m63.26,6.54c0,.57-.22,1.05-.66,1.44-.44.4-1.08.6-1.9.6-.3,0-.63-.04-.98-.13-.35-.09-.64-.2-.86-.35l-.24-.16.38-.75c.21.15.49.29.84.41.35.12.65.18.9.18.42,0,.79-.1,1.1-.3.31-.2.47-.51.47-.92,0-.23-.07-.43-.2-.6-.14-.16-.32-.28-.53-.35-.18-.06-.42-.13-.7-.21-.67-.15-1.16-.32-1.48-.51-.48-.28-.72-.76-.72-1.42,0-.58.24-1.02.71-1.34.47-.31,1-.47,1.6-.47.7,0,1.27.13,1.73.38l.22.13-.39.72c-.5-.29-.99-.43-1.48-.43-.38,0-.72.07-1.02.22-.3.15-.45.39-.45.74,0,.14.03.27.1.38.07.11.15.2.23.27.09.07.21.13.36.19.15.06.28.1.37.13.09.03.22.05.38.09.64.17,1.15.35,1.5.56.48.31.72.81.72,1.5Z"/>
        </g>
        <polygon class="cls-2" points="36.24 9.09 37.22 7.33 37.22 2.42 36.24 .7 37.43 0 38.59 2.04 38.59 7.7 37.43 9.79 36.24 9.09"/>
        <polygon class="cls-2" points="40.33 7.7 40.33 2.04 41.49 0 42.67 .7 41.7 2.42 41.7 7.33 42.68 9.09 41.49 9.79 40.33 7.7"/>
        <rect class="cls-2" x="41.88" y="4.21" width="3.71" height="1.36" transform="translate(48.63 -38.85) rotate(90)"/>
        <rect class="cls-2" x="33.31" y="4.21" width="3.71" height="1.36" transform="translate(40.06 -30.27) rotate(90)"/>
      </g>
      <g>
        <path class="cls-1" d="m.57,7.07h-.57L.74,2.87h1.13c.4,0,.72.09.97.28.25.19.38.47.38.86,0,.52-.17.91-.49,1.18-.33.27-.76.41-1.28.41h-.62l-.26,1.46Zm.65-3.71l-.31,1.75h.64c.34,0,.61-.09.8-.28.19-.19.29-.45.29-.79,0-.23-.07-.4-.21-.51-.14-.11-.33-.17-.57-.17h-.64Z"/>
        <path class="cls-1" d="m5.01,4.09c.38,0,.69.11.93.34.24.23.37.53.37.91,0,.5-.17.92-.5,1.27s-.74.52-1.23.52c-.38,0-.69-.11-.94-.34-.25-.23-.37-.53-.37-.91,0-.5.17-.92.5-1.27s.75-.52,1.24-.52Zm-.4,2.57c.34,0,.61-.13.83-.38s.33-.55.33-.89c0-.25-.07-.45-.22-.6-.15-.15-.34-.23-.58-.23-.33,0-.61.13-.83.38-.22.25-.33.55-.33.88,0,.25.07.45.22.6.15.15.34.23.58.23Z"/>
        <path class="cls-1" d="m7.88,7.13c-.29,0-.52-.09-.71-.26-.19-.17-.28-.4-.28-.69,0-.11,0-.21.02-.3l.3-1.73h.53l-.3,1.7c-.02.08-.02.17-.02.25,0,.18.05.32.15.41.1.1.23.14.41.14.21,0,.39-.08.54-.24.15-.16.24-.35.27-.56l.29-1.69h.53l-.29,1.69c-.02.07-.02.14-.02.23,0,.18.05.32.14.42.09.1.22.16.4.16s.32-.05.45-.15c.13-.1.22-.23.29-.4.06-.16.11-.33.14-.49s.04-.33.04-.49c0-.34-.1-.56-.31-.67l.37-.4c.33.14.49.48.49,1.02,0,.65-.14,1.15-.43,1.52-.29.36-.66.55-1.12.55-.12,0-.23-.02-.34-.05-.1-.04-.19-.08-.25-.13-.11-.07-.19-.16-.25-.26l-.03-.05s-.07.08-.11.13c-.1.1-.23.18-.41.25s-.33.1-.48.1Z"/>
        <path class="cls-1" d="m14.54,5.82h-2.17c0,.26.07.46.21.61.14.15.34.22.6.22.12,0,.25-.02.4-.06.15-.04.27-.09.37-.16l.11-.07.15.44c-.14.09-.31.16-.53.22-.22.06-.41.09-.58.09-.38,0-.68-.11-.92-.34-.24-.23-.36-.53-.36-.91,0-.49.17-.91.5-1.26s.74-.52,1.24-.52c.34,0,.6.1.79.3.19.2.29.46.29.8,0,.07,0,.15-.02.26-.04.23-.07.35-.08.37Zm-2.07-.48h1.64c0-.09.01-.14.01-.14,0-.2-.06-.35-.18-.46-.12-.11-.28-.16-.48-.16s-.41.08-.59.23c-.19.15-.32.33-.39.53Z"/>
        <path class="cls-1" d="m17.56,4.42l.02.04-.37.41s-.03-.04-.07-.08c-.14-.14-.29-.21-.46-.21-.22,0-.41.07-.55.22-.14.14-.23.28-.25.41l-.32,1.87h-.53l.51-2.92h.5l-.04.31c.1-.1.23-.19.39-.26s.3-.11.44-.11c.26,0,.48.08.66.23.03.03.05.06.08.09Z"/>
        <path class="cls-1" d="m20.14,5.82h-2.17c0,.26.07.46.21.61.14.15.34.22.6.22.12,0,.25-.02.4-.06.15-.04.27-.09.37-.16l.11-.07.15.44c-.14.09-.31.16-.53.22-.22.06-.41.09-.58.09-.38,0-.68-.11-.92-.34-.24-.23-.36-.53-.36-.91,0-.49.17-.91.5-1.26s.74-.52,1.24-.52c.34,0,.6.1.79.3.19.2.29.46.29.8,0,.07,0,.15-.02.26-.04.23-.07.35-.08.37Zm-2.07-.48h1.64c0-.09.01-.14.01-.14,0-.2-.06-.35-.18-.46-.12-.11-.28-.16-.48-.16s-.41.08-.59.23c-.19.15-.32.33-.39.53Z"/>
        <path class="cls-1" d="m23.34,2.87h.53l-.61,3.46s0,.04,0,.08c0,.13.09.21.26.25l-.26.47c-.12,0-.23-.04-.31-.1-.09-.05-.14-.1-.17-.16l-.04-.08c-.12.1-.26.17-.43.23-.17.06-.33.09-.49.09-.36,0-.63-.12-.83-.35-.2-.23-.3-.53-.3-.89,0-.52.17-.94.5-1.28s.73-.5,1.18-.5c.11,0,.23.02.35.05s.22.08.28.14l.07.06.26-1.48Zm-.7,3.52l.09-.1.25-1.4c-.16-.22-.38-.32-.65-.32-.33,0-.6.13-.81.39-.21.26-.31.56-.31.9,0,.22.06.41.18.56.12.16.28.23.5.23.13,0,.27-.02.41-.07.14-.05.26-.11.34-.2Z"/>
        <path class="cls-1" d="m25.59,6.89l-.12-.08.7-3.94h.53l-.26,1.46c.21-.15.46-.23.77-.23.36,0,.65.12.86.35.22.24.32.54.32.9,0,.53-.17.96-.5,1.28s-.77.49-1.3.49c-.42,0-.76-.08-1-.24Zm.83-2.12l-.07.07-.29,1.67c.14.1.35.16.62.16.34,0,.62-.12.84-.37.22-.25.33-.54.33-.89,0-.24-.07-.44-.2-.6-.13-.16-.32-.23-.56-.23-.27,0-.49.07-.67.2Z"/>
        <path class="cls-1" d="m29.68,7.3l.15-.25-.29-.12-.25-1.75c-.02-.11-.03-.2-.05-.26-.02-.06-.05-.13-.11-.2-.05-.07-.12-.12-.21-.16l.29-.46c.34.06.53.25.56.58l.29,1.96,1.37-2.47h.59l-1.78,3.14c-.1.18-.19.32-.25.41-.06.09-.15.2-.25.31-.11.11-.23.2-.36.25-.13.05-.28.08-.45.08-.04,0-.11,0-.2-.01-.07-.01-.12-.02-.15-.04h-.05s.17-.48.17-.48c.08.03.17.05.29.05.15,0,.28-.05.38-.15.1-.1.2-.23.3-.41Z"/>
      </g>
    </g>
  </g>
</svg>