<svg viewBox="0 0 360 208" fill="none" xmlns="http://www.w3.org/2000/svg">
<g>
<path d="M-8.51396 177.133C89.4601 220.595 124.226 171.13 216.389 179.036C268.903 183.531 323.16 220.802 376.786 188.597C417.113 164.367 438.718 113.655 438.797 68.5306C438.831 47.4518 424.444 22.9681 425.914 2.72689C428.964 -39.041 457.48 -63.2821 477.966 -99.4577C501.565 -141.169 514.926 -186.149 486.554 -234.549C458.89 -281.763 401.948 -296.344 364.619 -334.479C325.545 -374.402 321.497 -419.149 255.666 -427.692C203.307 -434.476 168.149 -397.054 122.99 -386.459C7.56818 -359.352 -77.8142 -387.035 -101.429 -246.493C-111.305 -187.698 -97.6003 -126.543 -111.975 -70.5408C-137.494 29.0497 -138.493 119.473 -8.51396 177.133Z" fill="#4D5DFA"/>
</g>
</svg>
