<svg width="16" height="16" viewBox="0 0 16 16" fill="none" xmlns="http://www.w3.org/2000/svg">
<path d="M5.01691 9.65673C4.8873 9.65673 4.77442 9.60865 4.67826 9.51249C4.5821 9.41633 4.53402 9.30345 4.53402 9.17385C4.53402 9.04424 4.5821 8.93157 4.67826 8.83583C4.77442 8.74009 4.8873 8.69201 5.01691 8.69159C5.14651 8.69117 5.25939 8.73925 5.35555 8.83583C5.45171 8.9324 5.49979 9.04529 5.49979 9.17447C5.49979 9.30366 5.45171 9.41633 5.35555 9.51249C5.25939 9.60865 5.14651 9.65673 5.01691 9.65673ZM7.52539 9.65673C7.39579 9.65673 7.2829 9.60865 7.18675 9.51249C7.09059 9.41633 7.04251 9.30345 7.04251 9.17385C7.04251 9.04424 7.09059 8.93157 7.18675 8.83583C7.2829 8.74009 7.39579 8.69201 7.52539 8.69159C7.655 8.69117 7.76788 8.73925 7.86404 8.83583C7.96019 8.9324 8.00827 9.04529 8.00827 9.17447C8.00827 9.30366 7.96019 9.41633 7.86404 9.51249C7.76788 9.60865 7.655 9.65673 7.52539 9.65673ZM10.0339 9.65673C9.90427 9.65673 9.79139 9.60865 9.69523 9.51249C9.59907 9.41633 9.55099 9.30345 9.55099 9.17385C9.55099 9.04424 9.59907 8.93157 9.69523 8.83583C9.79139 8.74009 9.90427 8.69201 10.0339 8.69159C10.1635 8.69117 10.2764 8.73925 10.3725 8.83583C10.4687 8.9324 10.5168 9.04529 10.5168 9.17447C10.5168 9.30366 10.4687 9.41633 10.3725 9.51249C10.2764 9.60865 10.1635 9.65673 10.0339 9.65673ZM3.52185 14.1187C3.23296 14.1187 2.99193 14.0221 2.79878 13.829C2.60563 13.6358 2.50884 13.3948 2.50842 13.1059V5.09756C2.50842 4.80908 2.60521 4.56827 2.79878 4.37512C2.99235 4.18196 3.23337 4.08518 3.52185 4.08476H4.63123V2.68628H5.30664V4.08476H9.79306V2.68628H10.4202V4.08476H11.5296C11.818 4.08476 12.0591 4.18154 12.2526 4.37512C12.4462 4.56869 12.5428 4.80971 12.5424 5.09819V13.1059C12.5424 13.3944 12.4458 13.6354 12.2526 13.829C12.0595 14.0225 11.8182 14.1191 11.5289 14.1187H3.52185ZM3.52185 13.4916H11.5296C11.6257 13.4916 11.7141 13.4514 11.7948 13.3712C11.8755 13.2909 11.9157 13.2023 11.9152 13.1053V7.60667H3.13554V13.1059C3.13554 13.2021 3.17568 13.2905 3.25595 13.3712C3.33622 13.4519 3.42465 13.492 3.52122 13.4916M3.13554 6.97892H11.9152V5.09756C11.9152 5.0014 11.8751 4.91298 11.7948 4.83229C11.7146 4.7516 11.6259 4.71146 11.5289 4.71188H3.52185C3.42527 4.71188 3.33664 4.75202 3.25595 4.83229C3.17526 4.91256 3.13513 5.00119 3.13554 5.09819V6.97892Z" fill="#707070"/>
</svg>
