<svg width="21" height="21" viewBox="0 0 21 21" fill="none" xmlns="http://www.w3.org/2000/svg">
<path d="M11.0002 14.4239C7.06 14.4284 3.84899 11.2144 3.85352 7.26819C3.85654 3.34915 7.06151 0.145692 10.9836 0.139653C14.9132 0.135124 18.1302 3.34463 18.1302 7.27423C18.1302 11.2114 14.9313 14.4194 11.0002 14.4239ZM10.2786 4.44818C10.2167 4.46931 10.1684 4.48743 10.12 4.50252C9.30484 4.7652 8.80062 5.49587 8.85497 6.33674C8.9063 7.15044 9.51317 7.82827 10.3465 7.96262C10.6514 8.01093 10.9685 7.98527 11.2795 7.99735C11.5844 8.00942 11.7822 8.33098 11.601 8.55742C11.5195 8.66008 11.3414 8.73103 11.204 8.73556C10.662 8.75519 10.1185 8.74462 9.57658 8.74462C9.25955 8.74462 9.03613 8.8986 8.90932 9.1794C8.69495 9.65493 9.0482 10.1531 9.60979 10.1712C9.82869 10.1788 10.0476 10.1712 10.2801 10.1712C10.2801 10.4294 10.274 10.6513 10.2801 10.8732C10.2952 11.2597 10.6092 11.5631 10.9866 11.5661C11.364 11.5692 11.6825 11.2703 11.7037 10.8853C11.7127 10.7223 11.7188 10.5577 11.7037 10.3947C11.6855 10.206 11.7384 10.1139 11.9331 10.0444C12.6895 9.77269 13.1514 9.01334 13.0865 8.19813C13.0231 7.40858 12.4298 6.73981 11.6357 6.60847C11.3383 6.55866 11.0289 6.57677 10.7254 6.56771C10.4416 6.56017 10.2831 6.43487 10.2816 6.20993C10.2816 5.98499 10.4401 5.85365 10.7239 5.85365C11.2523 5.85214 11.7791 5.85365 12.3075 5.85365C12.7634 5.85214 13.0865 5.56078 13.091 5.14865C13.0956 4.72595 12.771 4.42704 12.3045 4.42553C12.1082 4.42553 11.9105 4.42553 11.7082 4.42553C11.7082 4.17342 11.7112 3.95754 11.7082 3.74166C11.7022 3.31141 11.3912 2.99288 10.9866 2.99741C10.5926 3.00194 10.2891 3.31896 10.2816 3.73713C10.2786 3.97415 10.2816 4.21116 10.2816 4.44818H10.2786Z" fill="white"/>
<path d="M10.9936 20.1364C8.42119 20.1364 5.84876 20.1364 3.27482 20.1364C1.90708 20.1364 0.998274 19.2261 0.996765 17.8568C0.996765 16.9797 0.995255 16.1011 0.996765 15.224C0.999784 13.9167 1.92369 12.9973 3.23406 12.9943C3.63562 12.9943 4.03719 12.9867 4.43875 13.0003C4.53537 13.0033 4.65765 13.0501 4.72256 13.1196C8.1253 16.7608 13.8589 16.7623 17.2556 13.1196C17.3069 13.0652 17.3854 12.9988 17.4504 13.0003C18.0376 13.0033 18.6294 12.9701 19.2091 13.0426C20.1828 13.1634 20.9542 14.039 20.9769 15.0202C21.001 16.0468 21.001 17.0733 20.9769 18.0999C20.9512 19.217 20.0017 20.1228 18.8664 20.1334C17.6391 20.1455 16.4132 20.1364 15.1859 20.1364C13.788 20.1364 12.39 20.1364 10.9921 20.1364H10.9936ZM11.0012 16.5661C10.0712 16.5661 9.1428 16.5661 8.21286 16.5661C7.23914 16.5661 6.26542 16.5631 5.2917 16.5676C4.91429 16.5691 4.61236 16.8424 4.57009 17.1986C4.52933 17.5549 4.77238 17.8991 5.12866 17.9761C5.22829 17.9972 5.33548 17.9942 5.43964 17.9942C9.1428 17.9942 12.8444 17.9942 16.5476 17.9942C16.614 17.9942 16.682 17.9987 16.7484 17.9912C17.0488 17.961 17.2632 17.804 17.3704 17.5217C17.5545 17.0401 17.1937 16.5661 16.6442 16.5646C14.7632 16.5631 12.8822 16.5646 11.0012 16.5646V16.5661Z" fill="white"/>
</svg>
