<svg width="100" height="100" viewBox="0 0 100 100" fill="none" xmlns="http://www.w3.org/2000/svg">
<path d="M50.5072 92.5524C27.043 92.5524 7.95434 73.4637 7.95434 49.9972C7.95434 41.3091 10.5545 32.9536 15.4761 25.8319C15.6222 25.6206 15.9098 25.5667 16.1211 25.715C16.3323 25.8611 16.384 26.1488 16.2379 26.36C11.4242 33.3244 8.88023 41.5002 8.88023 49.9972C8.88023 72.9491 27.5531 91.6242 50.505 91.6242C73.4567 91.6242 92.1319 72.9513 92.1319 49.9972C92.1319 27.0432 73.459 8.37253 50.5072 8.37253C47.9498 8.37253 45.3901 8.60625 42.8978 9.06695C42.6461 9.11414 42.4034 8.94784 42.3562 8.69389C42.309 8.44219 42.4753 8.19948 42.7292 8.15229C45.2777 7.6826 47.8936 7.44214 50.5072 7.44214C73.9714 7.44214 93.0623 26.5308 93.0623 49.995C93.0623 73.4592 73.9736 92.5501 50.5072 92.5501V92.5524Z" fill="#D8D9DB" fill-opacity="0.5"/>
<path d="M19.0112 22.5419C18.9011 22.5419 18.791 22.5037 18.7033 22.425C18.5123 22.2542 18.4943 21.9621 18.6651 21.7688C19.9169 20.3575 21.2765 19.0158 22.7036 17.7843C22.8968 17.618 23.1912 17.6382 23.3575 17.8315C23.5261 18.0248 23.5036 18.3192 23.3103 18.4855C21.9125 19.6923 20.5843 21.0047 19.3596 22.3846C19.2674 22.4879 19.1393 22.5396 19.0135 22.5396L19.0112 22.5419Z" fill="#D8D9DB" fill-opacity="0.5"/>
<path d="M75 75C88.8071 61.1929 88.8071 38.8071 75 25C61.1929 11.1929 38.8071 11.1929 25 25C11.1929 38.8071 11.1929 61.1929 25 75C38.8071 88.8071 61.1929 88.8071 75 75Z" fill="#898C93" fill-opacity="0.3"/>
<path d="M42.6667 37.1666H39C38.0275 37.1666 37.0949 37.5529 36.4073 38.2406C35.7196 38.9282 35.3333 39.8608 35.3333 40.8333V62.8333C35.3333 63.8058 35.7196 64.7384 36.4073 65.426C37.0949 66.1137 38.0275 66.5 39 66.5H49.4445M61 53.6666V61H68.3333M61 48.1666V40.8333C61 39.8608 60.6137 38.9282 59.9261 38.2406C59.2384 37.5529 58.3058 37.1666 57.3333 37.1666H53.6667" stroke="white" stroke-width="2" stroke-linecap="round" stroke-linejoin="round"/>
<path d="M42.6667 48.1667H50M42.6667 55.5H48.1667M42.6667 37.1667C42.6667 36.1942 43.053 35.2616 43.7406 34.5739C44.4282 33.8863 45.3609 33.5 46.3333 33.5H50C50.9725 33.5 51.9051 33.8863 52.5927 34.5739C53.2804 35.2616 53.6667 36.1942 53.6667 37.1667C53.6667 38.1391 53.2804 39.0718 52.5927 39.7594C51.9051 40.447 50.9725 40.8333 50 40.8333H46.3333C45.3609 40.8333 44.4282 40.447 43.7406 39.7594C43.053 39.0718 42.6667 38.1391 42.6667 37.1667ZM53.6667 61C53.6667 62.9449 54.4393 64.8102 55.8146 66.1854C57.1898 67.5607 59.0551 68.3333 61 68.3333C62.9449 68.3333 64.8102 67.5607 66.1855 66.1854C67.5607 64.8102 68.3333 62.9449 68.3333 61C68.3333 59.0551 67.5607 57.1898 66.1855 55.8145C64.8102 54.4393 62.9449 53.6667 61 53.6667C59.0551 53.6667 57.1898 54.4393 55.8146 55.8145C54.4393 57.1898 53.6667 59.0551 53.6667 61Z" stroke="white" stroke-width="2" stroke-linecap="round" stroke-linejoin="round"/>
</svg>
