<svg width="25" height="25" viewBox="0 0 25 25" fill="none" xmlns="http://www.w3.org/2000/svg">
<path fill-rule="evenodd" clip-rule="evenodd" d="M5.5437 22.3792C3.88685 22.3792 2.5437 21.0361 2.5437 19.3792V11.7153C2.5437 10.8648 2.90467 10.0543 3.53681 9.4854L10.5368 3.1854C11.6777 2.15858 13.4097 2.15858 14.5506 3.1854L21.5506 9.4854C22.1827 10.0543 22.5437 10.8648 22.5437 11.7153V19.3792C22.5437 21.0361 21.2006 22.3792 19.5437 22.3792H5.5437ZM20.5437 11.7153V19.3792C20.5437 19.9315 20.096 20.3792 19.5437 20.3792H16.5437V15.3792C16.5437 13.7223 15.2006 12.3792 13.5437 12.3792H11.5437C9.88685 12.3792 8.5437 13.7223 8.5437 15.3792V20.3792H5.5437C4.99142 20.3792 4.5437 19.9315 4.5437 19.3792V11.7153C4.5437 11.4318 4.66402 11.1616 4.87474 10.972L11.8747 4.67199C12.255 4.32971 12.8324 4.32972 13.2127 4.67199L20.2127 10.972C20.4234 11.1616 20.5437 11.4318 20.5437 11.7153ZM10.5437 20.3792V15.3792C10.5437 14.8269 10.9914 14.3792 11.5437 14.3792H13.5437C14.096 14.3792 14.5437 14.8269 14.5437 15.3792V20.3792H10.5437Z" fill="white"/>
</svg>
