<svg width="16" height="16" viewBox="0 0 16 16" fill="none" xmlns="http://www.w3.org/2000/svg">
<path d="M7.52549 1.20947C8.91547 1.20947 10.2485 1.76164 11.2314 2.74451C12.2143 3.72738 12.7664 5.06043 12.7664 6.45041C12.7664 8.66505 11.2103 11.0786 8.13827 13.7168C7.96746 13.8635 7.74967 13.9441 7.52448 13.9439C7.29929 13.9437 7.08164 13.8627 6.91109 13.7157L6.7079 13.5394C3.7719 10.97 2.28455 8.61559 2.28455 6.45041C2.28455 5.06043 2.83671 3.72738 3.81958 2.74451C4.80245 1.76164 6.1355 1.20947 7.52549 1.20947ZM7.52549 2.01577C6.34935 2.01577 5.22138 2.48299 4.38972 3.31465C3.55806 4.1463 3.09084 5.27427 3.09084 6.45041C3.09084 8.33285 4.46048 10.5018 7.23737 12.9314L7.43787 13.1051C7.46225 13.126 7.49333 13.1376 7.52549 13.1376C7.55764 13.1376 7.58872 13.126 7.6131 13.1051C10.5244 10.6045 11.9601 8.37747 11.9601 6.45041C11.9601 5.86805 11.8454 5.29138 11.6226 4.75335C11.3997 4.21531 11.073 3.72644 10.6613 3.31465C10.2495 2.90285 9.76058 2.5762 9.22255 2.35334C8.68451 2.13048 8.10785 2.01577 7.52549 2.01577ZM7.52549 4.43467C8.06009 4.43467 8.57281 4.64704 8.95083 5.02506C9.32886 5.40309 9.54123 5.9158 9.54123 6.45041C9.54123 6.98502 9.32886 7.49774 8.95083 7.87576C8.57281 8.25379 8.06009 8.46616 7.52549 8.46616C6.99088 8.46616 6.47816 8.25379 6.10014 7.87576C5.72211 7.49774 5.50974 6.98502 5.50974 6.45041C5.50974 5.9158 5.72211 5.40309 6.10014 5.02506C6.47816 4.64704 6.99088 4.43467 7.52549 4.43467ZM7.52549 5.24096C7.20472 5.24096 6.89709 5.36839 6.67028 5.5952C6.44346 5.82202 6.31604 6.12965 6.31604 6.45041C6.31604 6.77118 6.44346 7.07881 6.67028 7.30562C6.89709 7.53244 7.20472 7.65986 7.52549 7.65986C7.84625 7.65986 8.15388 7.53244 8.38069 7.30562C8.60751 7.07881 8.73493 6.77118 8.73493 6.45041C8.73493 6.12965 8.60751 5.82202 8.38069 5.5952C8.15388 5.36839 7.84625 5.24096 7.52549 5.24096Z" fill="currentColor"/>
</svg>
