<svg width="155" height="41" viewBox="0 0 155 41" fill="none" xmlns="http://www.w3.org/2000/svg">
<rect x="2" y="2" width="37" height="37" rx="9.48718" fill="#4D5DFA"/>
<path fill-rule="evenodd" clip-rule="evenodd" d="M6.87256 15.5049C6.87256 11.0451 10.488 7.42969 14.9478 7.42969H15.7803C16.5619 7.42969 17.1956 8.06332 17.1956 8.84494C17.1956 9.62656 16.5619 10.2602 15.7803 10.2602H14.9478C12.0512 10.2602 9.70306 12.6083 9.70306 15.5049V16.3374C9.70306 17.1191 9.06943 17.7527 8.28781 17.7527C7.50619 17.7527 6.87256 17.1191 6.87256 16.3374V15.5049ZM23.5807 8.84494C23.5807 8.06332 24.2143 7.42969 24.9959 7.42969H25.6038C30.0637 7.42969 33.6791 11.0451 33.6791 15.5049V16.3374C33.6791 17.1191 33.0454 17.7527 32.2638 17.7527C31.4822 17.7527 30.8486 17.1191 30.8486 16.3374V15.5049C30.8486 12.6083 28.5004 10.2602 25.6038 10.2602H24.9959C24.2143 10.2602 23.5807 9.62656 23.5807 8.84494ZM8.28781 20.9162C9.06943 20.9162 9.70306 21.5498 9.70306 22.3314V26.1609C9.70306 29.0575 12.0512 31.4057 14.9478 31.4057H15.7803C16.5619 31.4057 17.1956 32.0393 17.1956 32.8209C17.1956 33.6026 16.5619 34.2362 15.7803 34.2362H14.9478C10.488 34.2362 6.87256 30.6208 6.87256 26.1609V22.3314C6.87256 21.5498 7.50619 20.9162 8.28781 20.9162ZM32.2638 20.9162C33.0454 20.9162 33.6791 21.5498 33.6791 22.3314V26.1609C33.6791 30.6208 30.0637 34.2362 25.6038 34.2362H24.9959C24.2143 34.2362 23.5807 33.6026 23.5807 32.8209C23.5807 32.0393 24.2143 31.4057 24.9959 31.4057H25.6038C28.5004 31.4057 30.8486 29.0575 30.8486 26.1609V22.3314C30.8486 21.5498 31.4822 20.9162 32.2638 20.9162Z" fill="white"/>
<path fill-rule="evenodd" clip-rule="evenodd" d="M4.09974 22.3274C4.09994 21.5457 4.73373 20.9123 5.51535 20.9125L35.4854 20.9201C36.267 20.9203 36.9004 21.5541 36.9002 22.3357C36.9 23.1173 36.2663 23.7508 35.4846 23.7506L5.51463 23.743C4.73301 23.7428 4.09954 23.109 4.09974 22.3274Z" fill="white"/>
<path d="M46.0582 25.3045C50.3907 25.5417 53.3238 25.6603 54.8576 25.6603C55.2213 25.6603 55.5059 25.5575 55.7114 25.352C55.9328 25.1306 56.0435 24.8381 56.0435 24.4744V22.3398H50.5884C48.9281 22.3398 47.7185 21.9682 46.9595 21.2251C46.2163 20.4661 45.8448 19.2565 45.8448 17.5962V16.8847C45.8448 15.2244 46.2163 14.0227 46.9595 13.2795C47.7185 12.5206 48.9281 12.1411 50.5884 12.1411H58.9134V15.4616H51.5371C50.5884 15.4616 50.114 15.936 50.114 16.8847V17.359C50.114 18.3078 50.5884 18.7821 51.5371 18.7821H55.8063C57.3559 18.7821 58.4943 19.1458 59.2217 19.8731C59.949 20.6005 60.3127 21.739 60.3127 23.2885V24.4744C60.3127 26.024 59.949 27.1625 59.2217 27.8898C58.4943 28.6172 57.3559 28.9808 55.8063 28.9808C54.9999 28.9808 54.146 28.965 53.2448 28.9334L51.0627 28.8385C49.4499 28.7595 47.7817 28.6488 46.0582 28.5065V25.3045ZM74.9369 28.5065C71.4109 28.8227 68.4856 28.9808 66.1613 28.9808C64.6117 28.9808 63.4733 28.6172 62.7459 27.8898C62.0186 27.1625 61.6549 26.024 61.6549 24.4744V16.8847C61.6549 15.2244 62.0265 14.0227 62.7696 13.2795C63.5286 12.5206 64.7382 12.1411 66.3985 12.1411H74.9369V15.4616H67.3472C66.3985 15.4616 65.9241 15.936 65.9241 16.8847V24.4744C65.9241 24.8381 66.0269 25.1306 66.2324 25.352C66.4538 25.5575 66.7305 25.6603 67.0626 25.6603C67.3946 25.6603 67.7583 25.6603 68.1536 25.6603C68.5489 25.6445 68.96 25.6287 69.3869 25.6129C69.8139 25.5971 70.2408 25.5813 70.6677 25.5654C71.1104 25.5496 71.6718 25.518 72.3517 25.4706C73.0474 25.4231 73.9091 25.3678 74.9369 25.3045V28.5065ZM79.4856 28.7437H74.8606L81.1459 12.1411H85.8895L92.1747 28.7437H87.5498L86.4824 25.7789H80.553L79.4856 28.7437ZM81.6203 22.6956H85.4151L83.5177 17.1219L81.6203 22.6956ZM107.511 28.7437H103.005L97.3127 18.7821V28.7437H93.0435V12.1411H97.5499L103.242 22.1026V12.1411H107.511V28.7437ZM110.052 12.1411H120.014C121.674 12.1411 122.876 12.5206 123.619 13.2795C124.378 14.0227 124.758 15.2244 124.758 16.8847V19.2565C124.758 20.9167 124.378 22.1263 123.619 22.8853C122.876 23.6285 121.674 24.0001 120.014 24.0001H114.322V28.7437H110.052V12.1411ZM120.488 16.8847C120.488 15.936 120.014 15.4616 119.065 15.4616H114.322V20.6795H119.065C120.014 20.6795 120.488 20.2052 120.488 19.2565V16.8847ZM128.127 28.7437H123.502L129.787 12.1411H134.531L140.816 28.7437H136.191L135.124 25.7789H129.194L128.127 28.7437ZM130.262 22.6956H134.056L132.159 17.1219L130.262 22.6956ZM137.888 12.1411H142.394L146.308 20.2052L150.221 12.1411H154.728L148.442 24.3558V28.7437H144.173V24.3558L137.888 12.1411Z" fill="#4D5DFA"/>
</svg>
