<?xml version="1.0" encoding="UTF-8"?>
<svg id="Layer_2" data-name="Layer 2" xmlns="http://www.w3.org/2000/svg" viewBox="0 0 954.47 190.16">
  <defs>
    <style>
      .cls-1 {
        fill: currentColor;
        stroke-width: 0px;
      }
    </style>
  </defs>
  <g id="Layer_1-2" data-name="Layer 1">
    <g>
      <path class="cls-1" d="m316.2,0v10.43h50.22v90.02h12.53V10.43h50.23V0h-112.98Zm133.93,25.06v75.39h12.53V25.06h-12.53Zm0-25.06v12.53h12.53V0h-12.53Zm106.57,80.17c-.07,1.53-.35,2.9-.86,4.11-.58,1.27-1.44,2.39-2.59,3.35-1.21.95-2.9,1.75-5.07,2.39-2.17.64-4.94,1.15-8.32,1.53-3.32.32-7.4.48-12.24.48-5.62,0-10.34-.19-14.16-.58-3.83-.38-6.99-1.02-9.47-1.91-2.43-.96-4.34-2.17-5.74-3.63-1.34-1.47-2.3-3.29-2.87-5.46-.64-2.17-1.02-4.69-1.15-7.55-.06-2.94-.1-6.29-.1-10.05s.04-7.21.1-10.14c.13-2.93.51-5.49,1.15-7.65.57-2.17,1.53-4.02,2.87-5.55,1.4-1.53,3.31-2.74,5.74-3.64,2.48-.89,5.64-1.53,9.47-1.91,3.82-.38,8.54-.57,14.16-.57,4.84,0,8.92.15,12.24.47,3.38.32,6.15.77,8.32,1.34,2.17.64,3.86,1.41,5.07,2.3,1.15.89,2.01,1.91,2.59,3.06.51,1.08.79,2.33.86,3.73.13,1.4.19,2.9.19,4.5h12.53c0-4.47-.6-8.33-1.82-11.58-1.21-3.25-3.38-5.93-6.5-8.03-3.19-2.11-7.46-3.67-12.82-4.69-5.42-1.02-12.31-1.53-20.66-1.53-6.32,0-11.84.25-16.55.76-4.72.51-8.77,1.37-12.15,2.59-3.45,1.21-6.29,2.8-8.52,4.78-2.23,2.04-4.02,4.53-5.36,7.46-1.33,3-2.26,6.47-2.77,10.43-.51,4.02-.76,8.64-.76,13.87s.25,9.6.76,13.49c.51,3.89,1.44,7.27,2.77,10.14,1.34,2.87,3.13,5.29,5.36,7.27,2.23,1.98,5.07,3.57,8.52,4.78,3.38,1.15,7.43,2.01,12.15,2.59,4.71.51,10.23.76,16.55.76,8.35,0,15.24-.54,20.66-1.62,5.36-1.03,9.63-2.62,12.82-4.79,3.12-2.17,5.29-4.91,6.5-8.23,1.22-3.38,1.82-7.36,1.82-11.95h-12.53c0,1.78-.06,3.41-.19,4.88Zm57.68-20l53.39-35.11h-18.85l-46.01,29.85h-4.22V0h-12.53v100.45h12.53v-36.16h4.22l48.11,36.16h18.85l-55.49-40.28Zm129.53,25.74c-.89,1.59-2.45,2.87-4.68,3.82-2.24.89-5.23,1.5-9,1.82-3.76.32-8.54.48-14.34.48-6.26,0-11.52-.23-15.79-.67-4.27-.45-7.72-1.53-10.33-3.25-2.62-1.66-4.5-4.34-5.65-8.04-1.14-3.7-1.72-8.42-1.72-14.16h74.33l1.06-4.21c0-3.89-.23-7.56-.67-11-.39-3.51-1.15-6.57-2.3-9.18-1.08-2.55-2.58-5.01-4.5-7.37-1.97-2.36-4.53-4.37-7.65-6.03-3.12-1.65-6.86-2.93-11.19-3.82-4.4-.9-9.6-1.34-15.59-1.34-8.36,0-15.47.64-21.34,1.91-5.8,1.28-10.55,3.51-14.25,6.7-3.64,3.19-6.29,7.46-7.94,12.82-1.66,5.42-2.49,12.24-2.49,20.47,0,7.21.83,13.17,2.49,17.89,1.65,4.78,4.3,8.58,7.94,11.38,3.7,2.87,8.45,4.88,14.25,6.03,5.87,1.15,12.98,1.72,21.34,1.72,7.84,0,14.44-.41,19.8-1.24,5.35-.83,9.66-2.11,12.91-3.83,3.25-1.78,5.61-4.11,7.08-6.98,1.4-2.81,2.11-6.25,2.11-10.33h-12.54c0,2.61-.44,4.75-1.34,6.41Zm-60.74-38.27c.51-2.68,1.3-4.78,2.39-6.31,1.08-1.47,2.49-2.78,4.21-3.93,1.72-1.08,3.82-1.94,6.31-2.58,2.43-.57,5.3-.96,8.61-1.15,3.32-.13,7.05-.19,11.2-.19,5.22,0,9.69.35,13.39,1.05,3.76.7,6.79,1.98,9.09,3.83,2.36,1.85,4.08,4.24,5.16,7.17,1.15,2.87,1.72,6.86,1.72,11.96h-62.85c0-3.82.26-7.11.77-9.85Zm154.11,19.32c0,3.77-.16,6.96-.47,9.57-.32,2.62-.8,4.75-1.44,6.41-.7,1.72-1.6,3.06-2.68,4.02-1.08.89-2.39,1.56-3.92,2.01-1.53.51-3.35.79-5.45.86-2.04.06-4.37.09-6.99.09-3.31,0-6.12-.06-8.42-.19-2.29-.19-4.14-.8-5.54-1.82-1.41-1.08-2.43-2.74-3.07-4.97-.63-2.3-.95-5.55-.95-9.76v-37.79h47.35v-10.33h-47.35V4.49h-12.53v20.57h-15.5v10.33h15.5v37.79c0,5.23.5,9.6,1.53,13.11,1.08,3.51,2.8,6.31,5.16,8.42,2.42,2.04,5.58,3.5,9.47,4.4,3.89.89,8.68,1.34,14.35,1.34s10.88-.55,14.83-1.63c4.02-1.08,7.27-2.93,9.76-5.55,2.49-2.55,4.24-5.96,5.26-10.23,1.02-4.34,1.53-9.7,1.53-16.08h-10.43Zm102.56-41.9l-31.38,66.97-33.49-66.97h-14.63l39.7,75.39h4.21c-.7,1.4-1.31,2.71-1.82,3.92-.57,1.27-1.24,2.45-2.01,3.54-.83,1.08-1.82,2.07-2.96,2.96-1.15.9-2.71,1.66-4.69,2.3-1.91.64-4.31,1.12-7.18,1.43-2.93.32-6.47.48-10.62.48v10.43c4.85,0,9.06-.22,12.63-.67,3.57-.45,6.67-1.08,9.28-1.91,2.62-.9,4.82-1.95,6.6-3.16,1.79-1.21,3.32-2.58,4.6-4.11,1.33-1.6,2.51-3.32,3.54-5.17,1.02-1.85,2.03-3.79,3.06-5.83l2.1-4.21,37.69-75.39h-14.63Z"/>
      <path class="cls-1" d="m145.77,42.55c-1.04-1.04-2.45-1.62-3.91-1.62s-2.87.58-3.91,1.62-1.62,2.44-1.62,3.91v14.74c0,1.46.58,2.87,1.62,3.91,1.04,1.03,2.44,1.61,3.91,1.61s2.87-.58,3.91-1.61c1.03-1.04,1.62-2.45,1.62-3.91v-14.74c0-1.47-.59-2.87-1.62-3.91Zm0,40.53c-1.04-1.04-2.45-1.62-3.91-1.62s-2.87.58-3.91,1.62c-1.04,1.04-1.62,2.44-1.62,3.91v18.42c0,1.47.58,2.87,1.62,3.91,1.04,1.04,2.44,1.62,3.91,1.62s2.87-.58,3.91-1.62c1.03-1.04,1.62-2.44,1.62-3.91v-18.42c0-1.47-.59-2.87-1.62-3.91Zm0,44.22c-1.04-1.04-2.45-1.62-3.91-1.62s-2.87.58-3.91,1.62c-1.04,1.03-1.62,2.44-1.62,3.9v14.74c0,1.47.58,2.87,1.62,3.91,1.04,1.04,2.44,1.62,3.91,1.62s2.87-.58,3.91-1.62c1.03-1.04,1.62-2.44,1.62-3.91v-14.74c0-1.46-.59-2.87-1.62-3.9Z"/>
      <path class="cls-1" d="m342.1,154.06c-1.33,1.07-2.78,1.72-4.6,1.72-3.52,0-5.35-2.04-6.11-3.46,6.24-1.04,10.44-6.3,10.44-12.71,0-7.2-5.15-12.95-12.82-12.95s-12.81,5.75-12.81,12.95,4.9,12.63,12.27,12.9c1.66,3.38,5.21,5.73,8.97,5.73,2.46,0,4.39-.68,6.19-2.1l-1.53-2.08Zm-13.09-4.3c-6.13,0-9.95-4.48-9.95-10.15s3.82-10.17,9.95-10.17,9.96,4.47,9.96,10.17-3.82,10.15-9.96,10.15Zm49.67-16.61v10.99c0,3.43-2.59,5.81-5.76,5.81s-5.34-2.29-5.34-5.76v-11.04h-2.87v11.1c0,5.42,3.71,8.29,7.64,8.29,3.08,0,4.96-1.45,6.33-3.28v2.98h2.86v-19.09h-2.86Zm26.92,0v19.09h2.86v-19.09h-2.86Zm-.11-6.96v3.74h3.11v-3.74h-3.11Zm35.61,23.76c-4.22,0-6.9-3.33-6.9-7.26s2.68-7.25,6.9-7.25c2.73,0,4.67,1.53,5.54,3.71h3.11c-1.12-3.71-4.5-6.3-9.03-6.3-5.73,0-9.38,4.39-9.38,9.84s3.65,9.85,9.38,9.85c4.53,0,7.91-2.59,9.03-6.3h-3.11c-.87,2.18-2.81,3.71-5.54,3.71Zm39.69-9.28l7.66-7.52h-4.01l-9.19,9.46v-17.1h-2.87v26.73h2.87v-6.03l3.6-3.54,6.68,9.57h3.49l-8.23-11.57Zm71.97-7.52v3.08c-1.42-2.05-3.66-3.38-6.85-3.38-5.56,0-9.22,4.39-9.22,9.84s3.66,9.85,9.22,9.85c3.19,0,5.43-1.28,6.85-3.36v3.06h2.86v-19.09h-2.86Zm-6.47,16.8c-4.22,0-6.73-3.33-6.73-7.26s2.51-7.25,6.73-7.25,6.63,3.32,6.63,7.25-2.37,7.26-6.63,7.26Zm42.58-17.1c-3.09,0-4.97,1.44-6.33,3.27v-2.97h-2.87v19.09h2.87v-10.99c0-3.44,2.59-5.81,5.75-5.81s5.35,2.29,5.35,5.75v11.05h2.86v-11.1c0-5.43-3.68-8.29-7.63-8.29Zm46.39-7.34v10.72c-1.4-2.05-3.66-3.38-6.82-3.38-5.59,0-9.25,4.39-9.25,9.84s3.66,9.85,9.25,9.85c3.16,0,5.42-1.28,6.82-3.36v3.06h2.86v-26.73h-2.86Zm-6.44,24.44c-4.26,0-6.76-3.33-6.76-7.26s2.5-7.25,6.76-7.25,6.6,3.32,6.6,7.25-2.37,7.26-6.6,7.26Zm79.8-20.24v-2.75h-18.6v25.28h18.6v-2.76h-15.74v-8.51h14.05v-2.78h-14.05v-8.48h15.74Zm37.42,3.44v3.08c-1.42-2.05-3.68-3.38-6.85-3.38-5.56,0-9.24,4.39-9.24,9.84s3.68,9.85,9.24,9.85c3.17,0,5.43-1.28,6.85-3.36v3.06h2.86v-19.09h-2.86Zm-6.47,16.8c-4.22,0-6.76-3.33-6.76-7.26s2.54-7.25,6.76-7.25,6.6,3.32,6.6,7.25-2.34,7.26-6.6,7.26Zm35.4-11.92c0-1.86,1.56-2.76,4.56-2.76,3.19,0,4.41,1.34,4.63,3h2.92c-.35-2.8-2.45-5.42-7.5-5.42s-7.47,2.02-7.47,5.45c0,6.98,12.71,4.01,12.71,8.78,0,2.59-3.33,3.03-4.88,3.03-3.71,0-5.16-1.91-5.35-3.87h-2.97c.19,3.35,2.97,6.3,8.29,6.3,4.72,0,7.77-2.02,7.77-5.73,0-7.17-12.71-4.2-12.71-8.78Zm48.71-4.88l-6.24,15.65-6.17-15.65h-3.16l7.8,18.81-3.49,7.83h3.11l11.29-26.64h-3.14Z"/>
      <path class="cls-1" d="m145.77,42.55c1.03,1.04,1.62,2.44,1.62,3.91v14.74c0,1.46-.59,2.87-1.62,3.91-1.04,1.03-2.45,1.61-3.91,1.61s-2.87-.58-3.91-1.61c-1.04-1.04-1.62-2.45-1.62-3.91v-14.74c0-1.47.58-2.87,1.62-3.91s2.44-1.62,3.91-1.62,2.87.58,3.91,1.62Z"/>
      <path class="cls-1" d="m145.77,83.08c1.03,1.04,1.62,2.44,1.62,3.91v18.42c0,1.47-.59,2.87-1.62,3.91-1.04,1.04-2.45,1.62-3.91,1.62s-2.87-.58-3.91-1.62c-1.04-1.04-1.62-2.44-1.62-3.91v-18.42c0-1.47.58-2.87,1.62-3.91,1.04-1.04,2.44-1.62,3.91-1.62s2.87.58,3.91,1.62Z"/>
      <path class="cls-1" d="m145.77,127.3c1.03,1.03,1.62,2.44,1.62,3.9v14.74c0,1.47-.59,2.87-1.62,3.91-1.04,1.04-2.45,1.62-3.91,1.62s-2.87-.58-3.91-1.62c-1.04-1.04-1.62-2.44-1.62-3.91v-14.74c0-1.46.58-2.87,1.62-3.9,1.04-1.04,2.44-1.62,3.91-1.62s2.87.58,3.91,1.62Z"/>
      <path class="cls-1" d="m246.75,2.24h-78.39c-.62-.23-1.28-.35-1.94-.35-2.85,0-5.25,2.45-5.52,5.28-.04.34-.05.69-.02,1.03-.38,9.7-8.37,17.23-18.41,17.23s-18.11-7.5-18.41-17.16c.05-.5.02-.99-.06-1.48-.52-3.06-3.71-5.29-6.7-4.55H30.82C13.25,2.24,0,14.44,0,30.61v127.5c0,13.46,8.96,25.63,20.8,30.16,3.17,1.22,6.55,1.89,10.02,1.89h87.73c1.66,0,3.15-.73,4.16-1.89.83-.94,1.33-2.17,1.37-3.52.24-10.89,7.47-17.93,18.39-17.93s18.16,7.04,18.4,17.93c.03,1.3.52,2.55,1.37,3.52.09.11.19.21.29.31,1.03,1.01,2.42,1.57,3.86,1.58h80.37c3.42,0,6.73-.67,9.81-1.89,11.38-4.49,19.77-16.49,19.77-30.16V30.61c0-16.44-12.44-28.37-29.59-28.37Zm18.54,155.87c0,11.18-8.66,20.99-18.54,20.99h-75.38c-2.56-13.98-13.81-23.34-28.9-23.34s-26.33,9.36-28.9,23.34H30.82c-10.34,0-19.76-10-19.76-20.99V30.61c0-11.25,10.18-17.31,19.76-17.31h82.71c2.61,13.36,14.4,23.18,28.94,23.18s26.21-9.82,28.9-23.18h75.38c10.92,0,18.54,7.12,18.54,17.31v127.5Z"/>
      <path class="cls-1" d="m342.1,154.06c-1.33,1.07-2.78,1.72-4.6,1.72-3.52,0-5.35-2.04-6.11-3.46,6.24-1.04,10.44-6.3,10.44-12.71,0-7.2-5.15-12.95-12.82-12.95s-12.81,5.75-12.81,12.95,4.9,12.63,12.27,12.9c1.66,3.38,5.21,5.73,8.97,5.73,2.46,0,4.39-.68,6.19-2.1l-1.53-2.08Zm-13.09-4.3c-6.13,0-9.95-4.48-9.95-10.15s3.82-10.17,9.95-10.17,9.96,4.47,9.96,10.17-3.82,10.15-9.96,10.15Z"/>
      <path class="cls-1" d="m378.68,133.15h2.86v19.09h-2.86v-2.98c-1.37,1.83-3.25,3.28-6.33,3.28-3.93,0-7.64-2.87-7.64-8.29v-11.1h2.87v11.04c0,3.47,2.21,5.76,5.34,5.76s5.76-2.38,5.76-5.81v-10.99Z"/>
      <rect class="cls-1" x="405.6" y="133.15" width="2.86" height="19.09"/>
      <rect class="cls-1" x="405.49" y="126.19" width="3.11" height="3.74"/>
      <polygon class="cls-1" points="316.2 0 429.18 0 429.18 10.43 378.95 10.43 378.95 100.45 366.42 100.45 366.42 10.43 316.2 10.43 316.2 0"/>
      <path class="cls-1" d="m434.2,142.69c0,3.93,2.68,7.26,6.9,7.26,2.73,0,4.67-1.53,5.54-3.71h3.11c-1.12,3.71-4.5,6.3-9.03,6.3-5.73,0-9.38-4.39-9.38-9.85s3.65-9.84,9.38-9.84c4.53,0,7.91,2.59,9.03,6.3h-3.11c-.87-2.18-2.81-3.71-5.54-3.71-4.22,0-6.9,3.32-6.9,7.25Z"/>
      <rect class="cls-1" x="450.13" width="12.53" height="12.53"/>
      <rect class="cls-1" x="450.13" y="25.06" width="12.53" height="75.39"/>
      <polygon class="cls-1" points="480.79 140.67 489.02 152.24 485.53 152.24 478.85 142.67 475.25 146.21 475.25 152.24 472.38 152.24 472.38 125.51 475.25 125.51 475.25 142.61 484.44 133.15 488.45 133.15 480.79 140.67"/>
      <path class="cls-1" d="m552.76,133.15v3.08c-1.42-2.05-3.66-3.38-6.85-3.38-5.56,0-9.22,4.39-9.22,9.84s3.66,9.85,9.22,9.85c3.19,0,5.43-1.28,6.85-3.36v3.06h2.86v-19.09h-2.86Zm-6.47,16.8c-4.22,0-6.73-3.33-6.73-7.26s2.51-7.25,6.73-7.25,6.63,3.32,6.63,7.25-2.37,7.26-6.63,7.26Z"/>
      <path class="cls-1" d="m494.23,52.71c-.06,2.93-.1,6.31-.1,10.14s.04,7.11.1,10.05c.13,2.86.51,5.38,1.15,7.55.57,2.17,1.53,3.99,2.87,5.46,1.4,1.46,3.31,2.67,5.74,3.63,2.48.89,5.64,1.53,9.47,1.91,3.82.39,8.54.58,14.16.58,4.84,0,8.92-.16,12.24-.48,3.38-.38,6.15-.89,8.32-1.53,2.17-.64,3.86-1.44,5.07-2.39,1.15-.96,2.01-2.08,2.59-3.35.51-1.21.79-2.58.86-4.11.13-1.47.19-3.1.19-4.88h12.53c0,4.59-.6,8.57-1.82,11.95-1.21,3.32-3.38,6.06-6.5,8.23-3.19,2.17-7.46,3.76-12.82,4.79-5.42,1.08-12.31,1.62-20.66,1.62-6.32,0-11.84-.25-16.55-.76-4.72-.58-8.77-1.44-12.15-2.59-3.45-1.21-6.29-2.8-8.52-4.78-2.23-1.98-4.02-4.4-5.36-7.27-1.33-2.87-2.26-6.25-2.77-10.14-.51-3.89-.76-8.39-.76-13.49s.25-9.85.76-13.87c.51-3.96,1.44-7.43,2.77-10.43,1.34-2.93,3.13-5.42,5.36-7.46,2.23-1.98,5.07-3.57,8.52-4.78,3.38-1.22,7.43-2.08,12.15-2.59,4.71-.51,10.23-.76,16.55-.76,8.35,0,15.24.51,20.66,1.53,5.36,1.02,9.63,2.58,12.82,4.69,3.12,2.1,5.29,4.78,6.5,8.03,1.22,3.25,1.82,7.11,1.82,11.58h-12.53c0-1.6-.06-3.1-.19-4.5-.07-1.4-.35-2.65-.86-3.73-.58-1.15-1.44-2.17-2.59-3.06-1.21-.89-2.9-1.66-5.07-2.3-2.17-.57-4.94-1.02-8.32-1.34-3.32-.32-7.4-.47-12.24-.47-5.62,0-10.34.19-14.16.57-3.83.38-6.99,1.02-9.47,1.91-2.43.9-4.34,2.11-5.74,3.64-1.34,1.53-2.3,3.38-2.87,5.55-.64,2.16-1.02,4.72-1.15,7.65Z"/>
      <path class="cls-1" d="m596.5,141.14v11.1h-2.86v-11.05c0-3.46-2.21-5.75-5.35-5.75s-5.75,2.37-5.75,5.81v10.99h-2.87v-19.09h2.87v2.97c1.36-1.83,3.24-3.27,6.33-3.27,3.95,0,7.63,2.86,7.63,8.29Z"/>
      <path class="cls-1" d="m635.26,125.51v10.72c-1.4-2.05-3.66-3.38-6.82-3.38-5.59,0-9.25,4.39-9.25,9.84s3.66,9.85,9.25,9.85c3.16,0,5.42-1.28,6.82-3.36v3.06h2.86v-26.73h-2.86Zm-6.44,24.44c-4.26,0-6.76-3.33-6.76-7.26s2.5-7.25,6.76-7.25,6.6,3.32,6.6,7.25-2.37,7.26-6.6,7.26Z"/>
      <polygon class="cls-1" points="614.38 60.17 669.87 100.45 651.02 100.45 602.91 64.29 598.69 64.29 598.69 100.45 586.16 100.45 586.16 0 598.69 0 598.69 54.91 602.91 54.91 648.92 25.06 667.77 25.06 614.38 60.17"/>
      <polygon class="cls-1" points="690.02 126.96 708.62 126.96 708.62 129.71 692.88 129.71 692.88 138.19 706.93 138.19 706.93 140.97 692.88 140.97 692.88 149.48 708.62 149.48 708.62 152.24 690.02 152.24 690.02 126.96"/>
      <path class="cls-1" d="m746.04,133.15v3.08c-1.42-2.05-3.68-3.38-6.85-3.38-5.56,0-9.24,4.39-9.24,9.84s3.68,9.85,9.24,9.85c3.17,0,5.43-1.28,6.85-3.36v3.06h2.86v-19.09h-2.86Zm-6.47,16.8c-4.22,0-6.76-3.33-6.76-7.26s2.54-7.25,6.76-7.25,6.6,3.32,6.6,7.25-2.34,7.26-6.6,7.26Z"/>
      <path class="cls-1" d="m743.91,85.91c-.89,1.59-2.45,2.87-4.68,3.82-2.24.89-5.23,1.5-9,1.82-3.76.32-8.54.48-14.34.48-6.26,0-11.52-.23-15.79-.67-4.27-.45-7.72-1.53-10.33-3.25-2.62-1.66-4.5-4.34-5.65-8.04-1.14-3.7-1.72-8.42-1.72-14.16h74.33l1.06-4.21c0-3.89-.23-7.56-.67-11-.39-3.51-1.15-6.57-2.3-9.18-1.08-2.55-2.58-5.01-4.5-7.37-1.97-2.36-4.53-4.37-7.65-6.03-3.12-1.65-6.86-2.93-11.19-3.82-4.4-.9-9.6-1.34-15.59-1.34-8.36,0-15.47.64-21.34,1.91-5.8,1.28-10.55,3.51-14.25,6.7-3.64,3.19-6.29,7.46-7.94,12.82-1.66,5.42-2.49,12.24-2.49,20.47,0,7.21.83,13.17,2.49,17.89,1.65,4.78,4.3,8.58,7.94,11.38,3.7,2.87,8.45,4.88,14.25,6.03,5.87,1.15,12.98,1.72,21.34,1.72,7.84,0,14.44-.41,19.8-1.24,5.35-.83,9.66-2.11,12.91-3.83,3.25-1.78,5.61-4.11,7.08-6.98,1.4-2.81,2.11-6.25,2.11-10.33h-12.54c0,2.61-.44,4.75-1.34,6.41Zm-60.74-38.27c.51-2.68,1.3-4.78,2.39-6.31,1.08-1.47,2.49-2.78,4.21-3.93,1.72-1.08,3.82-1.94,6.31-2.58,2.43-.57,5.3-.96,8.61-1.15,3.32-.13,7.05-.19,11.2-.19,5.22,0,9.69.35,13.39,1.05,3.76.7,6.79,1.98,9.09,3.83,2.36,1.85,4.08,4.24,5.16,7.17,1.15,2.87,1.72,6.86,1.72,11.96h-62.85c0-3.82.26-7.11.77-9.85Z"/>
      <path class="cls-1" d="m787.68,146.81c0,3.71-3.05,5.73-7.77,5.73-5.32,0-8.1-2.95-8.29-6.3h2.97c.19,1.96,1.64,3.87,5.35,3.87,1.55,0,4.88-.44,4.88-3.03,0-4.77-12.71-1.8-12.71-8.78,0-3.43,2.56-5.45,7.47-5.45s7.15,2.62,7.5,5.42h-2.92c-.22-1.66-1.44-3-4.63-3-3,0-4.56.9-4.56,2.76,0,4.58,12.71,1.61,12.71,8.78Z"/>
      <polygon class="cls-1" points="823.68 133.15 826.82 133.15 815.53 159.79 812.42 159.79 815.91 151.96 808.11 133.15 811.27 133.15 817.44 148.8 823.68 133.15"/>
      <path class="cls-1" d="m837.28,66.96h10.43c0,6.38-.51,11.74-1.53,16.08-1.02,4.27-2.77,7.68-5.26,10.23-2.49,2.62-5.74,4.47-9.76,5.55-3.95,1.08-8.9,1.63-14.83,1.63s-10.46-.45-14.35-1.34c-3.89-.9-7.05-2.36-9.47-4.4-2.36-2.11-4.08-4.91-5.16-8.42-1.03-3.51-1.53-7.88-1.53-13.11v-37.79h-15.5v-10.33h15.5V4.49h12.53v20.57h47.35v10.33h-47.35v37.79c0,4.21.32,7.46.95,9.76.64,2.23,1.66,3.89,3.07,4.97,1.4,1.02,3.25,1.63,5.54,1.82,2.3.13,5.11.19,8.42.19,2.62,0,4.95-.03,6.99-.09,2.1-.07,3.92-.35,5.45-.86,1.53-.45,2.84-1.12,3.92-2.01,1.08-.96,1.98-2.3,2.68-4.02.64-1.66,1.12-3.79,1.44-6.41.31-2.61.47-5.8.47-9.57Z"/>
      <path class="cls-1" d="m954.47,25.06l-37.69,75.39-2.1,4.21c-1.03,2.04-2.04,3.98-3.06,5.83-1.03,1.85-2.21,3.57-3.54,5.17-1.28,1.53-2.81,2.9-4.6,4.11-1.78,1.21-3.98,2.26-6.6,3.16-2.61.83-5.71,1.46-9.28,1.91-3.57.45-7.78.67-12.63.67v-10.43c4.15,0,7.69-.16,10.62-.48,2.87-.31,5.27-.79,7.18-1.43,1.98-.64,3.54-1.4,4.69-2.3,1.14-.89,2.13-1.88,2.96-2.96.77-1.09,1.44-2.27,2.01-3.54.51-1.21,1.12-2.52,1.82-3.92h-4.21l-39.7-75.39h14.63l33.49,66.97,31.38-66.97h14.63Z"/>
    </g>
  </g>
</svg>