<svg width="39" height="39" viewBox="0 0 39 39" fill="none" xmlns="http://www.w3.org/2000/svg">
<rect width="39" height="39" rx="10" fill="#3288AF"/>
<g clip-path="url(#clip0_89_1041)">
<path d="M34 26.5953V13.0509C34 11.3045 32.7395 10.0382 31.0018 10.0382H23.059C22.9962 10.0127 22.9293 10 22.8624 10C22.5736 10 22.3305 10.2603 22.3021 10.5609C22.298 10.597 22.298 10.6342 22.3001 10.6703C22.2616 11.7007 21.452 12.5007 20.4347 12.5007C19.4174 12.5007 18.5997 11.7039 18.5693 10.6778C18.5744 10.6257 18.5723 10.5726 18.5632 10.5205C18.5105 10.1955 18.1873 9.95963 17.8854 10.0382H9.12282C7.34255 10.0382 6 11.3332 6 13.0509V26.5953C6 28.4087 7.45907 29.9989 9.12282 29.9989H18.012C18.316 29.9989 18.5652 29.744 18.5723 29.4242C18.5967 28.2674 19.3282 27.5195 20.4357 27.5195C21.5432 27.5195 22.2747 28.2674 22.2991 29.4242C22.3021 29.5772 22.3629 29.7238 22.4673 29.8311C22.5716 29.9384 22.7125 29.9989 22.8584 29.9989H31.0008C32.626 29.9989 34 28.4405 34 26.5953ZM20.4357 26.3457C18.9077 26.3457 17.7678 27.34 17.5074 28.8251H9.12282C8.07512 28.8251 7.12065 27.7617 7.12065 26.5953V13.0509C7.12065 11.8558 8.15213 11.2121 9.12282 11.2121H17.5034C17.7678 12.6313 18.9624 13.6745 20.4357 13.6745C21.909 13.6745 23.0914 12.6313 23.364 11.2121H31.0018C32.1083 11.2121 32.8804 11.9684 32.8804 13.0509V26.5953C32.8804 27.783 32.0029 28.8251 31.0018 28.8251H23.364C23.1046 27.34 21.9647 26.3457 20.4357 26.3457Z" fill="white"/>
<path d="M20.3728 14.1472C20.2239 14.1472 20.082 14.2088 19.9766 14.3193C19.8713 14.4298 19.8125 14.5785 19.8125 14.7347V16.3005C19.8125 16.4567 19.8713 16.6054 19.9766 16.7159C20.082 16.8264 20.2239 16.888 20.3728 16.888C20.5218 16.888 20.6636 16.8264 20.769 16.7159C20.8744 16.6054 20.9331 16.4567 20.9331 16.3005V14.7347C20.9331 14.5785 20.8744 14.4298 20.769 14.3193C20.6636 14.2088 20.5218 14.1472 20.3728 14.1472ZM20.3728 18.4528C20.2239 18.4528 20.082 18.5144 19.9766 18.6248C19.8713 18.7353 19.8125 18.884 19.8125 19.0402V20.997C19.8125 21.1531 19.8713 21.3018 19.9766 21.4123C20.082 21.5228 20.2239 21.5844 20.3728 21.5844C20.5218 21.5844 20.6636 21.5228 20.769 21.4123C20.8744 21.3018 20.9331 21.1531 20.9331 20.997V19.0402C20.9331 18.884 20.8744 18.7353 20.769 18.6248C20.6636 18.5144 20.5218 18.4528 20.3728 18.4528ZM20.3728 23.1492C20.2239 23.1492 20.082 23.2108 19.9766 23.3213C19.8713 23.4318 19.8125 23.5805 19.8125 23.7367V25.3025C19.8125 25.4586 19.8713 25.6074 19.9766 25.7178C20.082 25.8283 20.2239 25.8899 20.3728 25.8899C20.5218 25.8899 20.6636 25.8283 20.769 25.7178C20.8744 25.6074 20.9331 25.4586 20.9331 25.3025V23.7367C20.9331 23.5805 20.8744 23.4318 20.769 23.3213C20.6636 23.2108 20.5218 23.1492 20.3728 23.1492Z" fill="white"/>
</g>
<defs>
<clipPath id="clip0_89_1041">
<rect width="28" height="20" fill="white" transform="translate(6 10)"/>
</clipPath>
</defs>
</svg>
