<svg width="117" height="117" viewBox="0 0 117 117" fill="none" xmlns="http://www.w3.org/2000/svg">
<rect x="5" y="5" width="107" height="107" rx="27.4359" fill="#4D5DFA"/>
<path fill-rule="evenodd" clip-rule="evenodd" d="M19.0895 44.0547C19.0895 31.1573 29.5449 20.7019 42.4422 20.7019H44.8497C47.1101 20.7019 48.9425 22.5343 48.9425 24.7947C48.9425 27.055 47.1101 28.8874 44.8497 28.8874H42.4422C34.0656 28.8874 27.275 35.678 27.275 44.0547V46.4622C27.275 48.7225 25.4426 50.5549 23.1822 50.5549C20.9219 50.5549 19.0895 48.7225 19.0895 46.4622V44.0547ZM67.4076 24.7947C67.4076 22.5343 69.24 20.7019 71.5003 20.7019H73.2582C86.1556 20.7019 96.611 31.1573 96.611 44.0547V46.4622C96.611 48.7225 94.7786 50.5549 92.5182 50.5549C90.2579 50.5549 88.4255 48.7225 88.4255 46.4622V44.0547C88.4255 35.678 81.6349 28.8874 73.2582 28.8874H71.5003C69.24 28.8874 67.4076 27.055 67.4076 24.7947ZM23.1822 59.7034C25.4426 59.7034 27.275 61.5358 27.275 63.7962V74.8707C27.275 83.2473 34.0656 90.0379 42.4422 90.0379H44.8497C47.1101 90.0379 48.9425 91.8703 48.9425 94.1307C48.9425 96.391 47.1101 98.2234 44.8497 98.2234H42.4422C29.5449 98.2234 19.0895 87.768 19.0895 74.8707V63.7962C19.0895 61.5358 20.9219 59.7034 23.1822 59.7034ZM92.5182 59.7034C94.7786 59.7034 96.611 61.5358 96.611 63.7962V74.8707C96.611 87.768 86.1556 98.2234 73.2582 98.2234H71.5003C69.24 98.2234 67.4076 96.391 67.4076 94.1307C67.4076 91.8703 69.24 90.0379 71.5003 90.0379H73.2582C81.6349 90.0379 88.4255 83.2473 88.4255 74.8707V63.7962C88.4255 61.5358 90.2579 59.7034 92.5182 59.7034Z" fill="white"/>
<path fill-rule="evenodd" clip-rule="evenodd" d="M11.072 63.7849C11.0725 61.5245 12.9054 59.6926 15.1657 59.6932L101.836 59.7152C104.096 59.7158 105.928 61.5486 105.927 63.809C105.927 66.0693 104.094 67.9013 101.834 67.9007L15.1637 67.8787C12.9033 67.8781 11.0714 66.0453 11.072 63.7849Z" fill="white"/>
</svg>
