<?xml version="1.0" encoding="UTF-8"?>
<svg id="Layer_2" data-name="Layer 2" xmlns="http://www.w3.org/2000/svg" viewBox="0 0 276.34 188.27">
  <defs>
    <style>
      .cls-1 {
        fill: currentColor;
        stroke-width: 0px;
      }
    </style>
  </defs>
  <g id="Layer_1-2" data-name="Layer 1">
    <g>
      <path class="cls-1" d="m276.34,156.22V28.72c0-16.44-12.44-28.36-29.59-28.36h-78.39C167.74.12,167.08,0,166.42,0,163.57,0,161.17,2.45,160.89,5.28c-.04.34-.04.69-.02,1.03-.38,9.7-8.37,17.23-18.41,17.23s-18.11-7.5-18.41-17.16c.05-.49.03-.99-.06-1.48-.52-3.06-3.71-5.28-6.69-4.54H30.82C13.25.36,0,12.55,0,28.72v127.5c0,17.07,14.4,32.04,30.82,32.04h87.73c3,0,5.46-2.4,5.53-5.41.24-10.89,7.46-17.93,18.39-17.93s18.15,7.04,18.39,17.93c.03,1.44.63,2.82,1.66,3.83,1.03,1.01,2.42,1.58,3.86,1.58h80.36c16.04,0,29.59-14.67,29.59-32.04Zm-133.87-2.35c-15.08,0-26.33,9.36-28.9,23.34H30.82c-10.34,0-19.76-10.01-19.76-20.99V28.72c0-11.25,10.18-17.31,19.76-17.31h82.71c2.61,13.36,14.4,23.18,28.94,23.18s26.21-9.82,28.9-23.18h75.38c10.92,0,18.54,7.12,18.54,17.31v127.5c0,11.18-8.66,20.99-18.54,20.99h-75.38c-2.56-13.98-13.81-23.34-28.9-23.34Z"/>
      <path class="cls-1" d="m141.85,39.04c-1.47,0-2.87.58-3.91,1.62-1.04,1.04-1.62,2.44-1.62,3.91v14.74c0,1.47.58,2.87,1.62,3.91,1.04,1.04,2.44,1.62,3.91,1.62s2.87-.58,3.91-1.62c1.04-1.04,1.62-2.44,1.62-3.91v-14.74c0-1.47-.58-2.87-1.62-3.91-1.04-1.04-2.44-1.62-3.91-1.62Zm0,40.53c-1.47,0-2.87.58-3.91,1.62-1.04,1.04-1.62,2.44-1.62,3.91v18.42c0,1.47.58,2.87,1.62,3.91,1.04,1.04,2.44,1.62,3.91,1.62s2.87-.58,3.91-1.62c1.04-1.04,1.62-2.44,1.62-3.91v-18.42c0-1.47-.58-2.87-1.62-3.91-1.04-1.04-2.44-1.62-3.91-1.62Zm0,44.21c-1.47,0-2.87.58-3.91,1.62s-1.62,2.44-1.62,3.91v14.74c0,1.47.58,2.87,1.62,3.91s2.44,1.62,3.91,1.62,2.87-.58,3.91-1.62c1.04-1.04,1.62-2.44,1.62-3.91v-14.74c0-1.47-.58-2.87-1.62-3.91-1.04-1.04-2.44-1.62-3.91-1.62Z"/>
    </g>
  </g>
</svg>