<svg width="164" height="43" viewBox="0 0 164 43" fill="none" xmlns="http://www.w3.org/2000/svg">
<rect x="2" y="2" width="39" height="39" rx="10" fill="#4D5DFA"/>
<path fill-rule="evenodd" clip-rule="evenodd" d="M7.13574 16.2349C7.13574 11.534 10.9466 7.72314 15.6475 7.72314H16.525C17.3489 7.72314 18.0167 8.39102 18.0167 9.21489C18.0167 10.0388 17.3489 10.7066 16.525 10.7066H15.6475C12.5943 10.7066 10.1192 13.1817 10.1192 16.2349V17.1124C10.1192 17.9363 9.45136 18.6041 8.62749 18.6041C7.80362 18.6041 7.13574 17.9363 7.13574 17.1124V16.2349ZM24.747 9.21489C24.747 8.39102 25.4149 7.72314 26.2388 7.72314H26.8795C31.5804 7.72314 35.3912 11.534 35.3912 16.2349V17.1124C35.3912 17.9363 34.7234 18.6041 33.8995 18.6041C33.0756 18.6041 32.4077 17.9363 32.4077 17.1124V16.2349C32.4077 13.1817 29.9327 10.7066 26.8795 10.7066H26.2388C25.4149 10.7066 24.747 10.0388 24.747 9.21489ZM8.62749 21.9386C9.45136 21.9386 10.1192 22.6065 10.1192 23.4304V27.4669C10.1192 30.5201 12.5943 32.9951 15.6475 32.9951H16.525C17.3489 32.9951 18.0167 33.663 18.0167 34.4869C18.0167 35.3108 17.3489 35.9787 16.525 35.9787H15.6475C10.9466 35.9787 7.13574 32.1678 7.13574 27.4669V23.4304C7.13574 22.6065 7.80362 21.9386 8.62749 21.9386ZM33.8995 21.9386C34.7234 21.9386 35.3912 22.6065 35.3912 23.4304V27.4669C35.3912 32.1678 31.5804 35.9787 26.8795 35.9787H26.2388C25.4149 35.9787 24.747 35.3108 24.747 34.4869C24.747 33.663 25.4149 32.9951 26.2388 32.9951H26.8795C29.9327 32.9951 32.4077 30.5201 32.4077 27.4669V23.4304C32.4077 22.6065 33.0756 21.9386 33.8995 21.9386Z" fill="white"/>
<path fill-rule="evenodd" clip-rule="evenodd" d="M4.21349 23.4261C4.2137 22.6022 4.88175 21.9345 5.70562 21.9347L37.2956 21.9427C38.1195 21.9429 38.7872 22.611 38.787 23.4349C38.7868 24.2587 38.1187 24.9264 37.2949 24.9262L5.70486 24.9182C4.88099 24.918 4.21328 24.2499 4.21349 23.4261Z" fill="white"/>
<path d="M48.4667 26.375C53.0334 26.625 56.125 26.75 57.7417 26.75C58.125 26.75 58.425 26.6417 58.6417 26.425C58.875 26.1917 58.9917 25.8833 58.9917 25.5V23.25H53.2417C51.4917 23.25 50.2167 22.8583 49.4167 22.075C48.6334 21.275 48.2417 20 48.2417 18.25V17.5C48.2417 15.75 48.6334 14.4833 49.4167 13.7C50.2167 12.9 51.4917 12.5 53.2417 12.5H62.0167V16H54.2417C53.2417 16 52.7417 16.5 52.7417 17.5V18C52.7417 19 53.2417 19.5 54.2417 19.5H58.7417C60.375 19.5 61.575 19.8833 62.3417 20.65C63.1084 21.4167 63.4917 22.6167 63.4917 24.25V25.5C63.4917 27.1333 63.1084 28.3333 62.3417 29.1C61.575 29.8667 60.375 30.25 58.7417 30.25C57.8917 30.25 56.9917 30.2333 56.0417 30.2L53.7417 30.1C52.0417 30.0167 50.2834 29.9 48.4667 29.75V26.375ZM78.9064 29.75C75.1897 30.0833 72.1064 30.25 69.6564 30.25C68.0231 30.25 66.8231 29.8667 66.0564 29.1C65.2897 28.3333 64.9064 27.1333 64.9064 25.5V17.5C64.9064 15.75 65.2981 14.4833 66.0814 13.7C66.8814 12.9 68.1564 12.5 69.9064 12.5H78.9064V16H70.9064C69.9064 16 69.4064 16.5 69.4064 17.5V25.5C69.4064 25.8833 69.5147 26.1917 69.7314 26.425C69.9647 26.6417 70.2564 26.75 70.6064 26.75C70.9564 26.75 71.3397 26.75 71.7564 26.75C72.1731 26.7333 72.6064 26.7167 73.0564 26.7C73.5064 26.6833 73.9564 26.6667 74.4064 26.65C74.8731 26.6333 75.4647 26.6 76.1814 26.55C76.9147 26.5 77.8231 26.4417 78.9064 26.375V29.75ZM83.701 30H78.826L85.451 12.5H90.451L97.076 30H92.201L91.076 26.875H84.826L83.701 30ZM85.951 23.625H89.951L87.951 17.75L85.951 23.625ZM113.242 30H108.492L102.492 19.5V30H97.9917V12.5H102.742L108.742 23V12.5H113.242V30ZM115.92 12.5H126.42C128.17 12.5 129.437 12.9 130.22 13.7C131.02 14.4833 131.42 15.75 131.42 17.5V20C131.42 21.75 131.02 23.025 130.22 23.825C129.437 24.6083 128.17 25 126.42 25H120.42V30H115.92V12.5ZM126.92 17.5C126.92 16.5 126.42 16 125.42 16H120.42V21.5H125.42C126.42 21.5 126.92 21 126.92 20V17.5ZM134.972 30H130.097L136.722 12.5H141.722L148.347 30H143.472L142.347 26.875H136.097L134.972 30ZM137.222 23.625H141.222L139.222 17.75L137.222 23.625ZM145.26 12.5H150.01L154.135 21L158.26 12.5H163.01L156.385 25.375V30H151.885V25.375L145.26 12.5Z" fill="white"/>
</svg>
