<svg width="24" height="24" viewBox="0 0 24 24" fill="none" xmlns="http://www.w3.org/2000/svg">
<path d="M4 19C3.45 19 2.97933 18.8043 2.588 18.413C2.19667 18.0217 2.00067 17.5507 2 17V5C2 4.45 2.196 3.97933 2.588 3.588C2.98 3.19667 3.45067 3.00067 4 3H19C19.55 3 20.021 3.196 20.413 3.588C20.805 3.98 21.0007 4.45067 21 5V9H19V5H4V17H5.8L7.775 19H4ZM14.825 22C14.425 22 14.0417 21.925 13.675 21.775C13.3083 21.625 12.9833 21.4083 12.7 21.125L7.6 16L8.425 15.15C8.65833 14.9167 8.94167 14.7583 9.275 14.675C9.60833 14.5917 9.94167 14.5917 10.275 14.675L12 15.175V8C12 7.71667 12.096 7.47933 12.288 7.288C12.48 7.09667 12.7173 7.00067 13 7C13.2827 6.99933 13.5203 7.09533 13.713 7.288C13.9057 7.48067 14.0013 7.718 14 8V14H15V11C15 10.7167 15.096 10.4793 15.288 10.288C15.48 10.0967 15.7173 10.0007 16 10C16.2827 9.99933 16.5203 10.0953 16.713 10.288C16.9057 10.4807 17.0013 10.718 17 11V14H18V12C18 11.7167 18.096 11.4793 18.288 11.288C18.48 11.0967 18.7173 11.0007 19 11C19.2827 10.9993 19.5203 11.0953 19.713 11.288C19.9057 11.4807 20.0013 11.718 20 12V14H21C21 13.7167 21.096 13.4793 21.288 13.288C21.48 13.0967 21.7173 13.0007 22 13C22.2827 12.9993 22.5203 13.0953 22.713 13.288C22.9057 13.4807 23.0013 13.718 23 14V18C23 19.1 22.6083 20.0417 21.825 20.825C21.0417 21.6083 20.1 22 19 22H14.825Z" fill="black"/>
</svg>
