<svg width="18" height="25" viewBox="0 0 18 25" fill="none" xmlns="http://www.w3.org/2000/svg">
<path d="M8.62409 20.879C9.30748 20.879 9.86147 20.3251 9.86147 19.6417C9.86147 18.9583 9.30748 18.4043 8.62409 18.4043C7.94071 18.4043 7.38672 18.9583 7.38672 19.6417C7.38672 20.3251 7.94071 20.879 8.62409 20.879Z" fill="currentColor"/>
<path d="M14.4724 24.5916H2.77424C1.99792 24.5453 1.2713 24.1943 0.752459 23.6149C0.233617 23.0356 -0.0354637 22.2748 0.00375737 21.4981V3.09343C-0.0354637 2.31673 0.233617 1.55596 0.752459 0.976633C1.2713 0.397311 1.99792 0.0463115 2.77424 0H14.4724C15.2487 0.0463115 15.9753 0.397311 16.4941 0.976633C17.013 1.55596 17.2821 2.31673 17.2428 3.09343V21.4981C17.2821 22.2748 17.013 23.0356 16.4941 23.6149C15.9753 24.1943 15.2487 24.5453 14.4724 24.5916ZM2.77424 1.23737C2.32666 1.28465 1.91545 1.50548 1.62883 1.85247C1.34221 2.19947 1.20302 2.64499 1.24113 3.09343V21.4981C1.20302 21.9466 1.34221 22.3921 1.62883 22.7391C1.91545 23.0861 2.32666 23.3069 2.77424 23.3542H14.4724C14.9199 23.3069 15.3312 23.0861 15.6178 22.7391C15.9044 22.3921 16.0436 21.9466 16.0055 21.4981V3.09343C16.0436 2.64499 15.9044 2.19947 15.6178 1.85247C15.3312 1.50548 14.9199 1.28465 14.4724 1.23737H2.77424Z" fill="currentColor"/>
</svg>
