<svg width="29" height="28" viewBox="0 0 29 28" fill="none" xmlns="http://www.w3.org/2000/svg">
<path d="M14.5069 23.6465C11.6948 23.6465 8.88276 23.2294 6.21552 22.3951C5.20173 22.0681 4.42931 21.4029 4.09138 20.5348C3.74138 19.6666 3.86207 18.7083 4.41724 17.8514L5.80517 15.698C6.09483 15.247 6.36035 14.3451 6.36035 13.8152V10.5568C6.36035 6.36271 10.0172 2.94653 14.5069 2.94653C18.9966 2.94653 22.6535 6.36271 22.6535 10.5568V13.8152C22.6535 14.3338 22.919 15.247 23.2086 15.7093L24.5845 17.8514C25.1034 18.6632 25.2 19.6441 24.85 20.5348C24.5 21.4254 23.7397 22.1019 22.7862 22.3951C20.131 23.2294 17.319 23.6465 14.5069 23.6465ZM14.5069 4.63771C11.019 4.63771 8.17069 7.28722 8.17069 10.5568V13.8152C8.17069 14.6382 7.80862 15.8558 7.36207 16.5661L5.97414 18.7196C5.70862 19.1367 5.63621 19.5764 5.79311 19.9485C5.93793 20.3318 6.3 20.625 6.79483 20.7828C11.8397 22.3612 17.1862 22.3612 22.231 20.7828C22.6655 20.6475 23.0034 20.3431 23.1603 19.9372C23.3172 19.5313 23.281 19.0916 23.0397 18.7196L21.6517 16.5661C21.1931 15.8333 20.8431 14.6269 20.8431 13.8039V10.5568C20.8431 7.28722 18.0069 4.63771 14.5069 4.63771Z" fill="currentColor"/>
<path d="M16.7517 4.94221C16.6672 4.94221 16.5828 4.93093 16.4983 4.90838C16.1483 4.81819 15.8103 4.75054 15.4845 4.70544C14.4586 4.58142 13.469 4.64907 12.5397 4.90838C12.2017 5.00986 11.8397 4.90838 11.6103 4.67162C11.381 4.43486 11.3086 4.09662 11.4414 3.79221C11.9362 2.60839 13.1431 1.83044 14.519 1.83044C15.8948 1.83044 17.1017 2.59711 17.5965 3.79221C17.7172 4.09662 17.6569 4.43486 17.4276 4.67162C17.2465 4.85201 16.9931 4.94221 16.7517 4.94221Z" fill="currentColor"/>
<path d="M14.5069 26.2172C13.3121 26.2172 12.1534 25.7662 11.3086 24.977C10.4638 24.1878 9.98103 23.1054 9.98103 21.9893H11.7914C11.7914 22.6545 12.081 23.3084 12.5879 23.7819C13.0948 24.2554 13.7948 24.526 14.5069 24.526C16.0034 24.526 17.2224 23.3873 17.2224 21.9893H19.0328C19.0328 24.3231 17.0052 26.2172 14.5069 26.2172Z" fill="currentColor"/>
<!-- <ellipse cx="20.8552" cy="5.91173" rx="3.47586" ry="3.24706" fill="#4D5DFA"/> -->
</svg>
