<svg width="19" height="20" viewBox="0 0 19 20" fill="none" xmlns="http://www.w3.org/2000/svg">
<path d="M2.29511 19.9998C2.14638 19.6058 2.00287 19.2102 1.8484 18.8188C1.25923 17.3263 0.666406 15.8349 0.0751468 14.3429C0.049576 14.2777 0.0276582 14.2109 0 14.1321C0.615786 13.7939 1.22374 13.4594 1.85727 13.1113C2.63222 15.0678 3.403 17.0143 4.179 18.9723C3.55799 19.3182 2.94586 19.659 2.33425 19.9998H2.29511Z" fill="white"/>
<path d="M7.49678 17.9127C6.67642 17.9127 5.85659 17.9096 5.03624 17.9159C4.89639 17.9169 4.83429 17.8715 4.78314 17.7416C4.26129 16.4108 3.73005 15.0833 3.20976 13.752C3.17688 13.6685 3.18106 13.5459 3.21811 13.4639C3.58445 12.6514 4.08595 11.9495 4.90265 11.532C5.65046 11.1495 6.42124 11.1177 7.20663 11.4167C7.5761 11.5576 7.95914 11.6015 8.3547 11.602C9.25281 11.602 10.1509 11.6197 11.049 11.6312C11.3392 11.6348 11.5197 11.7356 11.5855 12.0148C11.6372 12.2339 11.6476 12.4797 11.6074 12.701C11.5495 13.0172 11.358 13.1367 11.0318 13.1378C10.3612 13.1394 9.69065 13.1378 9.02059 13.1388C8.94909 13.1388 8.87708 13.1388 8.80663 13.1487C8.53265 13.1874 8.34113 13.4112 8.35522 13.6716C8.36879 13.9305 8.56449 14.1439 8.83324 14.1465C9.65307 14.1533 10.4734 14.1517 11.2933 14.1371C11.443 14.1345 11.5991 14.0719 11.7384 14.0082C12.9434 13.4572 14.1473 12.9035 15.347 12.3409C15.849 12.1056 16.3479 11.8728 16.9089 11.8149C17.4746 11.7564 18.0262 11.8112 18.5621 12.0038C18.8152 12.0946 18.9478 12.2903 18.9681 12.5507C18.9937 12.8816 18.8105 13.1101 18.546 13.2667C17.9756 13.6043 17.3963 13.9279 16.8202 14.2572C14.9238 15.3416 13.0253 16.4228 11.1325 17.5135C10.6566 17.788 10.1535 17.92 9.60663 17.9148C8.90369 17.908 8.20076 17.9133 7.49782 17.9133L7.49678 17.9127Z" fill="white"/>
<path d="M13.9962 8.98915e-07C11.5012 -0.00156466 9.48061 2.04201 9.47852 4.56986C9.47591 7.10241 11.4856 9.14495 13.9842 9.14912C16.4797 9.1533 18.5024 7.11024 18.5055 4.58239C18.5092 2.05714 16.4865 0.00156646 13.9962 8.98915e-07ZM13.4916 6.64632L12.4828 4.67737V6.64632H11.639V2.49707H12.4828V4.11481L13.3032 2.49707H14.2629L13.2567 4.39609L14.4513 6.64632H13.4916ZM16.3451 6.65206H15.5706V3.7469H15.101L15.0952 3.08832L15.5941 2.49707H16.3451V6.65206Z" fill="white"/>
</svg>
