<svg viewBox="0 0 24 24" fill="none" xmlns="http://www.w3.org/2000/svg">
<path fill-rule="evenodd" clip-rule="evenodd" d="M9.17574 15.8499C8.51001 15.8499 7.8614 16.0608 7.323 16.4524L6.47397 17.0699C5.57324 17.7249 6.03662 19.1499 7.15037 19.1499H16.8496C17.9634 19.1499 18.4268 17.7249 17.526 17.0699L16.677 16.4524C16.1386 16.0608 15.49 15.8499 14.8243 15.8499H9.17574ZM6.3231 15.0775C7.15207 14.4747 8.15073 14.1499 9.17574 14.1499H14.8243C15.8493 14.1499 16.8479 14.4746 17.6769 15.0775L18.5259 15.695C20.7582 17.3185 19.6098 20.8499 16.8496 20.8499H7.15037C4.3902 20.8499 3.24184 17.3185 5.47408 15.695L6.3231 15.0775Z" fill="currentColor"/>
<path fill-rule="evenodd" clip-rule="evenodd" d="M12 4.85002C10.2603 4.85002 8.85 6.26033 8.85 8.00002C8.85 9.73972 10.2603 11.15 12 11.15C13.7397 11.15 15.15 9.73972 15.15 8.00002C15.15 6.26033 13.7397 4.85002 12 4.85002ZM7.15 8.00002C7.15 5.32144 9.32142 3.15002 12 3.15002C14.6786 3.15002 16.85 5.32144 16.85 8.00002C16.85 10.6786 14.6786 12.85 12 12.85C9.32142 12.85 7.15 10.6786 7.15 8.00002Z" fill="currentColor"/>
</svg>
