<svg width="44" height="36" viewBox="0 0 44 36" fill="none" xmlns="http://www.w3.org/2000/svg">
<path d="M7.14285 16.1718L11.2483 11.5544C11.7972 10.9367 12.4707 10.4423 13.2245 10.1038C13.9782 9.76521 14.7952 9.59016 15.6215 9.59015H15.9184M7.14285 28.6038H15.1871L21.0374 24.216C21.0374 24.216 22.2221 23.416 23.9626 22.0221C27.619 19.097 23.9626 14.4664 20.3061 16.9031C17.3283 18.8878 14.4558 20.5595 14.4558 20.5595" stroke="currentColor" stroke-width="2" stroke-linecap="round" stroke-linejoin="round"/>
<path d="M15.9184 19.8283V10.3215C15.9184 9.54567 16.2266 8.80164 16.7751 8.25306C17.3237 7.70449 18.0677 7.3963 18.8435 7.3963H33.4694C34.2452 7.3963 34.9892 7.70449 35.5378 8.25306C36.0864 8.80164 36.3946 9.54567 36.3946 10.3215V19.097C36.3946 19.8728 36.0864 20.6168 35.5378 21.1654C34.9892 21.714 34.2452 22.0222 33.4694 22.0222H23.9626" stroke="currentColor" stroke-width="2"/>
<path d="M32.7381 14.7239L32.7527 14.7078M19.5748 14.7239L19.5895 14.7078M26.1565 17.6344C25.3807 17.6344 24.6366 17.3262 24.0881 16.7776C23.5395 16.2291 23.2313 15.485 23.2313 14.7092C23.2313 13.9334 23.5395 13.1894 24.0881 12.6408C24.6366 12.0922 25.3807 11.7841 26.1565 11.7841C26.9323 11.7841 27.6763 12.0922 28.2249 12.6408C28.7734 13.1894 29.0816 13.9334 29.0816 14.7092C29.0816 15.485 28.7734 16.2291 28.2249 16.7776C27.6763 17.3262 26.9323 17.6344 26.1565 17.6344Z" stroke="currentColor" stroke-width="2" stroke-linecap="round" stroke-linejoin="round"/>
</svg>
