<svg width="171" height="166" viewBox="0 0 171 166" fill="none" xmlns="http://www.w3.org/2000/svg">
<path d="M89.3732 146.153C82.6644 145.06 77.8513 140.658 73.6072 136.774C71.3344 134.695 69.1849 132.73 66.8881 131.319C61.6978 128.134 57.0699 126.924 52.5927 125.754C45.3559 123.865 37.8723 121.91 29.8196 112.033C21.712 102.086 18.6712 92.6169 20.5259 83.0843C22.3428 73.7355 28.8151 65.6534 34.2487 59.6605C37.7934 55.7465 40.272 50.9033 42.8911 45.776C45.1708 41.3172 47.5259 36.7079 50.7209 32.5265C58.9176 21.8074 66.8983 17.9602 77.4056 19.6715C81.4577 20.33 85.6229 21.7505 90.0314 23.2546C93.9292 24.5816 97.9573 25.9553 102.472 27.0349C102.908 27.1385 103.37 27.2321 103.843 27.309C106.14 27.6834 108.561 27.6934 111.118 27.7067C113.85 27.7201 116.672 27.7335 119.541 28.2014C122.976 28.7596 125.931 29.8994 128.567 31.6809C136.719 37.1859 137.467 43.473 138.19 49.5496C138.485 52.0263 138.79 54.5833 139.602 57.2405C140.641 60.6298 142.513 63.7549 144.494 67.0673C147.525 72.1278 150.658 77.362 150.97 83.9433C151.57 96.6111 143.041 103.647 136.575 107.838C134.501 109.185 132.458 110.245 130.484 111.271C126.377 113.404 122.832 115.245 120.504 118.959C119.808 120.068 119.438 121.97 119.082 123.809C118.653 126.015 118.207 128.297 117.114 130.35C113.158 137.783 104.505 145.615 94.0938 146.363C92.4894 146.47 90.9022 146.4 89.3732 146.153Z" fill="#4D5DFA"/>
<path d="M25.76 79.3299C28.2563 98.2165 39.3763 98.7953 46.9259 113.45C51.229 121.799 50.5291 133.504 60.727 138.557C68.3976 142.357 78.4582 140.832 85.5828 136.585C88.9107 134.602 91.3991 130.12 94.732 128.432C101.611 124.951 108.156 126.966 115.817 126.644C124.648 126.27 133.018 124.041 137.943 115.193C142.75 106.562 139.615 96.5934 142.067 87.3614C144.634 77.6974 151.305 72.8641 146.369 62.1234C142.442 53.5817 133.184 51.8074 127.203 45.9922C111.911 31.1318 108.128 15.6344 83.7072 25.3329C73.4912 29.3906 65.1538 37.2296 54.949 40.345C36.8056 45.8917 22.4485 54.2737 25.76 79.3299Z" fill="#4D5DFA"/>
<path fill-rule="evenodd" clip-rule="evenodd" d="M61.9635 74.5292C61.9635 66.8267 68.2076 60.5825 75.9102 60.5825H77.348C78.6979 60.5825 79.7923 61.6768 79.7923 63.0268C79.7923 64.3767 78.6979 65.471 77.348 65.471H75.9102C70.9075 65.471 66.852 69.5265 66.852 74.5292V75.967C66.852 77.3169 65.7577 78.4113 64.4078 78.4113C63.0578 78.4113 61.9635 77.3169 61.9635 75.967V74.5292ZM90.82 63.0268C90.82 61.6768 91.9143 60.5825 93.2643 60.5825H94.3141C102.017 60.5825 108.261 66.8267 108.261 74.5292V75.967C108.261 77.3169 107.166 78.4113 105.817 78.4113C104.467 78.4113 103.372 77.3169 103.372 75.967V74.5292C103.372 69.5265 99.3168 65.471 94.3141 65.471H93.2643C91.9143 65.471 90.82 64.3767 90.82 63.0268ZM64.4078 83.8749C65.7577 83.8749 66.852 84.9693 66.852 86.3192V92.9331C66.852 97.9358 70.9075 101.991 75.9102 101.991H77.348C78.6979 101.991 79.7923 103.086 79.7923 104.436C79.7923 105.785 78.6979 106.88 77.348 106.88H75.9102C68.2076 106.88 61.9635 100.636 61.9635 92.9331V86.3192C61.9635 84.9693 63.0578 83.8749 64.4078 83.8749ZM105.817 83.8749C107.166 83.8749 108.261 84.9693 108.261 86.3192V92.9331C108.261 100.636 102.017 106.88 94.3141 106.88H93.2643C91.9143 106.88 90.82 105.785 90.82 104.436C90.82 103.086 91.9143 101.991 93.2643 101.991H94.3141C99.3168 101.991 103.372 97.9358 103.372 92.9331V86.3192C103.372 84.9693 104.467 83.8749 105.817 83.8749Z" fill="white"/>
<path fill-rule="evenodd" clip-rule="evenodd" d="M57.1753 86.3123C57.1757 84.9624 58.2703 83.8684 59.6202 83.8687L111.381 83.8818C112.731 83.8822 113.825 84.9768 113.825 86.3267C113.825 87.6767 112.73 88.7707 111.38 88.7704L59.619 88.7572C58.2691 88.7569 57.175 87.6623 57.1753 86.3123Z" fill="white"/>
</svg>
