<svg width="18" height="16" viewBox="0 0 18 16" fill="none" xmlns="http://www.w3.org/2000/svg">
<path d="M16.9989 9.99986C17.2538 10.0001 17.4989 10.0977 17.6843 10.2727C17.8696 10.4477 17.9811 10.6868 17.9961 10.9413C18.011 11.1957 17.9282 11.4462 17.7646 11.6417C17.601 11.8371 17.369 11.9628 17.1159 11.9929L16.9989 11.9999H3.41289L5.70589 14.2929C5.88524 14.4728 5.98937 14.7143 5.99712 14.9682C6.00487 15.2222 5.91568 15.4696 5.74764 15.6601C5.57961 15.8507 5.34534 15.9702 5.09242 15.9943C4.8395 16.0184 4.58688 15.9453 4.38589 15.7899L4.29189 15.7069L0.461892 11.8769C-0.203108 11.2129 0.222892 10.0939 1.12489 10.0059L1.23989 9.99986H16.9989ZM12.2919 0.292861C12.4641 0.120685 12.6932 0.0172534 12.9362 0.00197221C13.1792 -0.013309 13.4195 0.06061 13.6119 0.209861L13.7059 0.292861L17.5359 4.12286C18.2009 4.78686 17.7749 5.90586 16.8729 5.99386L16.7579 5.99986H0.998892C0.744013 5.99958 0.49886 5.90198 0.313524 5.72701C0.128188 5.55204 0.0166572 5.31291 0.00172004 5.05847C-0.0132171 4.80402 0.0695667 4.55348 0.233157 4.35803C0.396747 4.16258 0.628796 4.03696 0.881892 4.00686L0.998892 3.99986H14.5849L12.2919 1.70686C12.1044 1.51933 11.9991 1.26503 11.9991 0.999861C11.9991 0.734697 12.1044 0.480389 12.2919 0.292861Z" fill="#AFAFAF"/>
</svg>
